<svg width="109" height="109" viewBox="0 0 109 109" fill="none" xmlns="http://www.w3.org/2000/svg">
<path d="M108.811 84.7769C108.133 82.5883 106.286 81.1052 104.724 79.5403L93.0374 67.7951C92.0705 66.8237 91.1537 65.7617 90.141 64.8405C85.9384 61.0208 79.4139 65.3622 81.1743 70.7957C81.9335 73.1367 88.4408 78.6349 90.4347 80.9845H33.6272C30.6851 80.986 28.2988 78.5932 28.2988 75.6401V27.1103C28.2988 24.4546 28.399 21.7615 28.2988 19.1116C31.3326 21.7371 36.2342 28.3074 40.0186 28.0559C42.9608 27.8604 45.7497 25.0251 45.436 21.9828C45.1595 19.3013 42.4896 17.2807 40.7148 15.5218L29.4003 4.32558C27.0425 1.95154 25.0816 -0.74727 21.3158 0.191135C19.1343 0.870868 17.6561 2.72469 16.0962 4.29109L4.38921 16.0161C3.42091 16.9861 2.36236 17.9059 1.44419 18.9219C-2.36312 23.1382 1.96415 29.6841 7.38004 27.9179C9.71341 27.1563 15.1938 20.6277 17.5357 18.6273L17.4856 82.3023C17.4856 87.5419 21.7112 91.7942 26.9351 91.81L28.2973 91.8143V91.7827H81.9779C84.6249 91.7827 87.3092 91.8832 89.9506 91.7827C87.3336 94.8264 80.7847 99.744 81.0353 103.541C81.2301 106.492 84.0563 109.29 87.0887 108.976C89.7615 108.698 91.7755 106.02 93.5287 104.239L104.688 92.8878C107.055 90.5223 109.745 88.555 108.809 84.7769H108.811Z" fill="white"/>
<path d="M80.9789 42.3492C80.9789 41.1255 81.0291 39.8808 80.9746 38.6585C80.1987 34.6039 76.1201 33.586 73.5329 35.1961C69.6234 33.0442 66.6245 34.2692 65.1631 35.2115C63.6071 34.1488 61.5003 34.0326 59.7908 35.3291C55.91 33.0806 52.8983 34.167 51.3523 35.1093C49.5582 33.9822 47.1058 34.0774 45.3489 36.0614C43.6366 37.9963 44.0424 40.7755 44.041 43.1598L44.0381 53.7655C44.0352 54.5216 43.9822 55.3168 44.041 56.0687C44.1672 60.6078 49.4449 62.5931 52.3677 59.4849C53.9567 57.795 53.6971 55.4064 53.6985 53.2769V42.3758C53.7 42.1868 53.7029 41.9991 53.7057 41.8101C55.1858 40.7699 56.3517 40.9001 57.6783 42.0846C57.6883 42.4486 57.6969 42.8098 57.6955 43.1612L57.6926 53.7669C57.6898 54.523 57.6367 55.3182 57.6955 56.0701C57.8217 60.6092 63.0994 62.5945 66.0222 59.4863C67.6112 57.7964 67.3516 55.4078 67.3531 53.2783V42.3772C67.3545 42.2694 67.3559 42.1616 67.3559 42.0523C68.8661 40.8567 70.0364 40.8147 71.3257 41.8129C71.3415 42.4444 71.3615 43.0618 71.3615 43.6261L71.3658 52.329C71.3658 53.8075 71.4275 55.3098 71.3629 56.7855C72.6436 62.5819 80.3465 62.2263 80.9431 56.7813C81.0334 55.9525 80.9789 55.083 80.9775 54.2485V42.3506L80.9789 42.3492Z" fill="url(#paint0_linear_646_1669)"/>
<path d="M97.3241 28.505C97.2418 28.4749 96.9586 28.3816 96.8878 28.3816H89.8109C90.25 27.6187 97.5509 21.0203 98.3555 19.4858C99.7626 16.8055 98.7167 13.3923 96.6568 11.2899C93.1941 7.75621 86.9665 8.41877 84.2767 12.5433C83.6844 13.4525 83.0906 15.0831 83.0834 16.1673C83.069 18.1234 85.4324 19.0872 86.9275 17.8782C87.8751 17.1124 87.5342 16.3509 87.9517 15.3972C88.7953 13.464 91.8636 13.1427 93.3746 14.4507C94.0781 15.0602 94.3555 16.0597 94.1692 16.9589C93.8918 18.3041 92.1786 19.5446 91.1674 20.5499C88.44 23.2633 85.2604 26.4513 83.3738 29.3755C82.38 30.9172 83.4908 32.7069 85.259 32.9708C88.4804 32.9708 91.7105 32.9809 94.9247 32.9723C95.5473 32.9708 96.3881 33.0382 96.9818 32.9679C97.3877 32.9192 97.9655 32.5879 98.2588 32.3083C99.4881 31.1323 98.8453 29.0629 97.3227 28.5064L97.3241 28.505Z" fill="url(#paint1_linear_646_1669)"/>
<defs>
<linearGradient id="paint0_linear_646_1669" x1="44.0023" y1="47.5001" x2="81.0004" y2="47.5001" gradientUnits="userSpaceOnUse">
<stop stop-color="#B4E5F3"/>
<stop offset="1" stop-color="#F8F8F6"/>
</linearGradient>
<linearGradient id="paint1_linear_646_1669" x1="83.0011" y1="20.9988" x2="99.0027" y2="20.9988" gradientUnits="userSpaceOnUse">
<stop stop-color="#B4E5F3"/>
<stop offset="1" stop-color="#F8F8F6"/>
</linearGradient>
</defs>
</svg>
