<svg width="114" height="108" viewBox="0 0 114 108" fill="none" xmlns="http://www.w3.org/2000/svg">
<path d="M43.1477 6.0327C56.74 5.15364 64.3379 22.2048 54.6106 32.4205C52.1366 35.0185 48.3363 36.9374 44.7708 36.9794C31.938 37.6441 23.9801 22.0658 32.6061 11.6908C35.3811 8.35272 38.8621 6.36868 43.1463 6.0327H43.1477Z" fill="white"/>
<path d="M13.2908 74.2967C12.6853 69.574 13.6272 60.3782 15.2263 56.1801C18.276 48.1767 25.903 41.6548 34.3681 40.3944C37.8509 39.8755 41.4696 40.0938 44.9831 40.0882C49.6362 40.0811 54.7741 39.5281 59.2071 41.2819C66.2258 44.0594 70.0898 50.2169 72.7513 56.9783C73.1984 58.1154 73.431 59.7728 73.738 60.4732L73.8557 60.5299L73.8529 68.6794C73.8529 71.5433 73.2376 74.2258 76 75.9583C75.8865 75.9923 65.2504 76.032 64.523 75.9583L64.5286 57.863C64.53 53.6493 63.7998 51.9622 59.2729 51.948L30.9863 51.9452C28.2183 51.9395 24.4538 51.6758 23.7643 55.484C23.6045 56.3687 23.669 57.3285 23.6718 58.226L23.6746 75.9583C23.1532 75.9356 22.6445 75.9299 22.1231 75.9583H15.7462C14.4933 75.9555 13.253 75.9101 12 75.9583C12.4177 75.8817 12.8689 75.9356 13.2894 75.9583C13.3006 75.4039 13.2908 74.8496 13.2894 74.2952L13.2908 74.2967Z" fill="url(#paint0_linear_647_1673)"/>
<path d="M23.0179 76L23.015 58.2816C23.0136 57.3849 22.9459 56.4258 23.1101 55.5418C23.8187 51.7366 27.6871 52.0001 30.5315 52.0058L59.5992 52.0086C64.2511 52.0228 65.0014 53.7086 65 57.919L64.9943 76C63.4936 75.9221 61.9439 75.9986 60.4389 76H23.0179Z" fill="white"/>
<path d="M83.1049 32.5631C76.3721 32.7465 76.0631 29.5948 76.056 24.237L76.0531 9.85122C76.0516 6.97176 75.5099 3.6611 77.9199 1.52228C79.9433 -0.274152 84.6383 -0.0606999 87.4262 0.109775C89.0501 0.0539053 90.6884 0.108343 92.3138 0.109775L106.517 0.104045C110.194 0.0868543 113.849 0.558168 113.955 5.45038C114.06 10.2137 113.948 14.9999 113.954 19.766L113.961 24.9949C113.962 26.7068 114.237 29.0791 113.008 30.4744C111.337 33.2636 107.498 32.5688 104.776 32.5688L95.2872 32.566C94.4939 33.5014 93.567 34.3065 92.6673 35.1374L89.3376 38.2031C87.968 39.448 85.821 42.3174 83.8378 40.3032C82.6867 39.1343 83.1265 34.3767 83.1063 32.5674L83.1049 32.5631Z" fill="white"/>
<path d="M91.9262 75.2341C91.3574 75.1746 90.7842 75.2937 90.2325 75.0961C86.4925 75.1746 82.7238 74.9435 78.9881 75.0961C78.1054 75.099 77.2213 75.1121 76.34 75.0961C76.224 75.131 65.3493 75.1717 64.6056 75.0961C63.1125 75.0162 61.5706 75.0946 60.0731 75.0961H22.8407C22.3077 75.0728 21.7875 75.0685 21.2545 75.0961H14.7346C13.4535 75.0932 12.1853 75.0467 10.9043 75.0961C7.85352 75.1019 4.08341 74.384 1.75487 76.7862C-0.582278 79.1971 -0.612368 82.9842 1.82938 85.3442C3.29529 86.7597 4.89017 86.8541 6.80746 86.9108V107.948H81.202C84.1969 107.948 87.2405 108.065 90.2296 107.948V86.9108C91.9133 86.9791 93.4652 86.7262 94.8008 85.6014C98.8445 82.945 96.9774 75.766 91.9234 75.2341H91.9262Z" fill="white"/>
<defs>
<linearGradient id="paint0_linear_647_1673" x1="21.2556" y1="84.6919" x2="66.8499" y2="46.9441" gradientUnits="userSpaceOnUse">
<stop stop-color="#B4E5F3"/>
<stop offset="1" stop-color="#F8F8F6"/>
</linearGradient>
</defs>
</svg>
