<svg width="35" height="28" viewBox="0 0 35 28" fill="none" xmlns="http://www.w3.org/2000/svg">
<g clip-path="url(#clip0_193_305)">
<path d="M31.346 0.104629C26.8922 -0.132223 22.0027 0.108062 17.5001 0.108062C12.9975 0.108062 8.10797 -0.132223 3.6542 0.104629C2.54461 0.163842 1.60968 0.406701 0.85369 1.27172C0.510368 1.66476 0.0300594 2.52979 0.0685868 3.05412C0.0762922 3.16482 0.0677306 3.25064 0.167046 3.33131C3.32886 6.43183 6.37681 9.64821 9.50266 12.7839C11.239 14.5251 13.2475 16.7804 15.0754 18.3319C15.7518 18.906 16.614 19.3617 17.5001 19.3617C18.4367 19.2948 19.1465 18.9987 19.8563 18.4006C21.7287 16.8224 23.7852 14.4925 25.566 12.7153C28.7278 9.55982 31.852 6.36061 35.0001 3.19143C34.6277 1.16445 33.352 0.211899 31.346 0.104629Z" fill="#FDFEFE"/>
<path d="M35 24.8309V5.85191C31.8519 9.02109 28.7277 12.2203 25.5659 15.3757C23.7851 17.153 21.7286 19.4829 19.8562 21.0611C19.1464 21.6592 18.4358 21.9553 17.5 22.0222C16.9563 22.0222 15.7509 21.5665 15.0753 20.9924C13.2466 19.4408 11.238 17.1856 9.50257 15.4444C6.37586 12.3087 0 5.7146 0 5.7146V23.893C0 24.5151 0.0890411 25.1339 0.265411 25.7311L0.398116 26.18C0.973459 27.2158 2.01199 27.8525 3.18836 27.9744L17.2954 27.983C22.3091 27.9855 27.3485 28.0533 32.3493 27.8954C33.7877 27.523 34.881 26.3336 35 24.8309Z" fill="#FDFEFE"/>
</g>
<defs>
<clipPath id="clip0_193_305">
<rect width="35" height="28" fill="white"/>
</clipPath>
</defs>
</svg>
