<svg width="108" height="108" viewBox="0 0 108 108" fill="none" xmlns="http://www.w3.org/2000/svg">
<path d="M106.138 44.1505C104.228 42.3075 102.2 42.6983 99.7762 42.7043H91.4685C91.0269 40.72 89.5884 38.4094 88.8789 36.416L88.9388 36.3243C89.536 35.4179 90.4327 34.6196 91.1826 33.8364L95.7436 29.1401C98.0907 26.7499 99.4529 25.4149 98.2494 21.8431C97.8647 20.7021 89.0346 12.0161 87.4733 10.6601C83.6862 7.3709 80.4155 10.6872 77.817 13.2728L74.1227 16.8898C73.3533 17.6369 72.5884 18.4607 71.7232 19.0951C70.5796 18.6862 66.1773 16.8747 65.7611 16.0043C65.4543 15.3639 65.6009 14.2861 65.6039 13.5795L65.6114 8.47582C65.6099 5.13851 65.7327 1.99362 62.0713 0.556469C60.272 -0.15008 50.6127 -0.0418424 47.9917 0.11901C38.4281 1.10367 44.1566 13.6336 41.805 16.4733C41.4054 16.9559 36.9537 19.2364 36.325 19.2845C35.569 19.3416 34.3596 17.6489 33.8731 17.1664L29.2777 12.6354C26.977 10.3504 24.7077 7.82039 21.217 10.1505C19.509 11.29 17.0901 14.0621 15.5393 15.615C13.3613 17.7962 9.11019 20.8449 9.19252 24.1567C9.26138 26.9257 11.6399 28.6185 13.4287 30.3938L17.2472 34.2197C17.9987 34.9759 18.8698 35.7366 19.4252 36.6551C19.018 37.9885 17.123 41.7016 16.2114 42.7058C15.2175 42.8066 14.2206 42.7133 13.2251 42.7073L7.45615 42.7043C-0.400974 42.7524 0.125934 45.7139 0.12743 52.8035C0.12743 57.1149 -1.16587 64.6359 4.48784 65.7679C5.87844 66.046 7.40076 65.8671 8.81531 65.8626L16.2114 65.8596C16.8401 66.736 18.9327 71.2248 18.7875 72.1268C18.6438 73.0273 15.0214 76.2819 14.2654 77.0185C8.38122 82.7611 6.83943 84.2088 12.7506 90.1874L17.7592 95.1858C19.1962 96.6079 20.5299 98.5246 22.621 98.9636C27.929 100.073 31.9451 92.2484 36.1483 89.3981L36.2172 89.4297C40.627 91.4035 42.3858 89.795 42.3424 94.3289L42.3364 99.2853C42.326 107.72 44.6536 108.006 51.8745 108H59.9248C65.5186 107.916 65.9287 103.328 65.9258 98.908L65.9198 94.2072C65.9183 93.6855 65.8045 92.7294 66.0231 92.2649C66.3045 91.6651 70.8954 89.553 71.7247 89.3981L71.8279 89.4568C76.5611 92.1687 79.4471 100.36 85.737 98.687C87.5931 98.1939 88.6589 96.85 89.9522 95.506L92.5867 92.8181C93.8501 91.5464 97.5039 88.2181 98.2239 86.9824C100.514 83.0543 96.8079 80.4716 94.4697 78.0798C92.7813 76.3511 90.765 73.9593 88.8789 72.4876C89.7381 70.4987 90.8533 67.8965 91.4685 65.8566C94.1045 65.8295 101.616 66.2354 103.818 65.6957C108.576 64.5307 107.865 59.8569 107.867 56.1994C107.868 52.7659 108.711 46.6294 106.138 44.1475V44.1505ZM54.0001 79.7395C39.8471 79.7395 28.3735 68.2167 28.3735 54.0031C28.3735 39.7894 39.8471 28.2667 54.0001 28.2667C68.1531 28.2667 79.6267 39.7894 79.6267 54.0031C79.6267 68.2167 68.1531 79.7395 54.0001 79.7395Z" fill="url(#paint0_linear_646_1627)"/>
<defs>
<linearGradient id="paint0_linear_646_1627" x1="93.0043" y1="16.3726" x2="14.6597" y2="91.8805" gradientUnits="userSpaceOnUse">
<stop stop-color="#B4E5F3"/>
<stop offset="1" stop-color="#F8F8F6"/>
</linearGradient>
</defs>
</svg>
