<svg width="84" height="108" viewBox="0 0 84 108" fill="none" xmlns="http://www.w3.org/2000/svg">
<path d="M83.0804 91.5196V27.3494C83.0789 26.266 83.1162 25.1723 82.4463 24.2512C81.4974 22.0637 78.4956 19.662 76.844 17.9432L74.5807 15.5727C74.1465 15.1144 73.7228 14.601 73.2319 14.2052C72.6262 13.4597 71.9041 12.7737 71.2312 12.0862L64.6113 5.40472C63.1313 3.9345 61.7945 2.76339 59.9996 1.67412C58.3943 -0.205321 55.1507 0.0416993 52.9292 0.0431874L26.9093 0.0461636H16.4491C13.7024 0.0461636 10.2171 -0.209785 7.57934 0.483658C2.69314 1.77084 -0.369872 6.64577 0.0359435 11.5921V16.107L0.0269916 21.0593C0.0269916 22.0518 -0.00135576 23.0548 0.0359435 24.0503V94.7056C0.0434033 102.826 3.35557 107.932 11.9687 107.949H67.3953C69.5363 107.949 72.0503 108.138 74.142 107.786C78.5388 107.043 82.2732 103.28 82.9536 98.8841C83.2579 96.9124 83.0804 93.6133 83.0804 91.5196ZM22.3976 23.5399C26.6004 23.4893 30.8108 23.5399 35.0151 23.5399H38.8764C39.7029 23.5414 40.5876 23.4908 41.4038 23.6262C46.0244 24.3911 46.1542 31.5368 40.607 31.8344H28.167C24.9041 31.8374 18.6289 32.9609 18.2797 28.1752C18.0828 25.4774 19.6971 23.6902 22.3976 23.5399ZM60.686 84.5822C59.6446 84.5331 58.5778 84.5792 57.5334 84.5807L25.7903 84.5837C23.9089 84.5867 21.5621 84.9304 19.9522 83.731C16.9549 81.4959 18.2021 77.0034 22.3976 76.5332C25.1323 76.4826 27.8746 76.5332 30.6094 76.5332L55.2015 76.5302C57.1366 76.5302 60.774 76.127 62.4912 77.1076C66.1048 79.1716 65.0037 83.6804 60.6874 84.5837L60.686 84.5822ZM22.1902 58.9918H56.1399C58.2138 58.9873 60.9396 58.5439 62.7747 59.7433C66.057 61.8905 64.6606 66.4039 61.0694 67.0378H26.5766C25.0921 67.0408 23.5449 67.142 22.0693 67.0065C16.9922 66.5408 17.1145 59.5066 22.1917 58.9918H22.1902ZM60.686 49.1839C57.9586 49.2389 55.2194 49.1839 52.4891 49.1839H26.8809C24.8235 49.1854 21.6501 49.7121 19.8702 48.4235C16.6729 46.111 18.3439 41.6825 22.1902 41.3001C24.552 41.1944 26.9704 41.2986 29.3352 41.3001H54.9359C56.9635 41.2986 59.0627 41.1959 61.0798 41.3759C65.8959 41.806 66.0257 48.4711 60.6874 49.1839H60.686Z" fill="url(#paint0_linear_647_1677)"/>
<path d="M76.6133 17.7869L74.35 15.4164C73.9158 14.9581 73.4921 14.4447 73.0012 14.0489C72.3955 13.3034 71.6734 12.6174 71.0005 11.9299L64.3806 5.24843C62.9006 3.77821 61.5638 2.60709 59.769 1.51782C59.6929 3.61006 59.769 5.72163 59.769 7.81684C59.769 12.9224 58.8201 18.1218 63.1438 21.8062C65.0117 23.6857 67.5899 24.0889 70.1232 24.0979L78.5006 24.0934C79.7061 24.0919 81.0206 23.9714 82.2126 24.0934C81.2638 21.9059 78.2619 19.5042 76.6103 17.7855L76.6133 17.7869Z" fill="white"/>
<defs>
<linearGradient id="paint0_linear_647_1677" x1="82.7701" y1="53.4666" x2="5.00725" y2="54.4837" gradientUnits="userSpaceOnUse">
<stop stop-color="#B4E5F3"/>
<stop offset="1" stop-color="#F8F8F6"/>
</linearGradient>
</defs>
</svg>
