<svg width="94" height="108" viewBox="0 0 94 108" fill="none" xmlns="http://www.w3.org/2000/svg">
<path d="M25.8672 5.51309e-06H59.0263C69.4551 -0.00284189 76.331 1.09483 84.386 8.99211C96.0638 20.4429 96.3265 40.2381 84.7372 51.8555C77.5501 59.0595 70.1289 61.1082 60.4409 61.1039H34.1991C34.1548 64.4866 34.1962 67.8764 34.1991 71.2606V85.8393L34.2034 95.613C34.2034 98.9687 34.8528 103.187 32.2678 105.828C29.5328 108.623 24.5425 108.684 21.7705 105.912C19.007 103.147 19.6151 99.6976 19.6165 96.1312L19.6136 85.8407C19.5794 84.1807 19.6136 71.262 19.6136 71.262V61.1025L11.1361 61.1053C9.42178 61.1053 6.92951 61.2989 5.30367 60.8903C-1.7678 59.1107 -1.77782 48.8145 5.35218 47.0107C7.17358 46.5494 9.26905 46.7971 11.1418 46.7985L19.6151 46.7943V36.8212H11.8741C9.88429 36.8226 7.6118 37.0262 5.67335 36.5493C-1.50233 34.7825 -2.07897 24.4863 5.13525 22.5557C6.92667 22.0759 9.48604 22.2966 11.3802 22.2966L19.6136 22.3009V12.2239C19.6108 6.89642 19.0598 1.14181 25.8672 5.51309e-06ZM46.8418 14.8193H34.1962V46.7943L59.3746 46.7971C61.4073 46.7985 63.41 46.8313 65.4241 46.491C79.6284 43.6892 83.334 25.3419 71.8147 17.7379C67.0742 14.6086 63.35 14.8165 57.9758 14.8165L46.8418 14.8193Z" fill="white"/>
<path d="M63.057 71.2372C61.6682 70.9673 60.2022 71.0471 58.7934 71.0471H11.699C9.58579 71.0456 7.15676 70.8149 5.10638 71.3881C-3.01368 73.6558 -0.600366 86.2628 7.33824 85.9958C10.9132 85.8768 34.2532 85.9073 34.2532 85.9073L55.8129 85.9102C58.009 85.9102 61.7554 86.1191 63.7743 85.6911C70.9599 84.1677 70.9571 72.7693 63.0585 71.2372H63.057Z" fill="url(#paint0_linear_646_1670)"/>
<defs>
<linearGradient id="paint0_linear_646_1670" x1="0.0754627" y1="78.499" x2="69.0753" y2="78.499" gradientUnits="userSpaceOnUse">
<stop stop-color="#B4E5F3"/>
<stop offset="1" stop-color="#F8F8F6"/>
</linearGradient>
</defs>
</svg>
