<svg width="33" height="27" viewBox="0 0 33 27" fill="none" xmlns="http://www.w3.org/2000/svg">
<path d="M30.0324 21.0722C29.7631 22.4792 29.4194 25.9821 28.1299 26.7458C26.7771 27.5469 24.9078 26.2788 23.7578 25.5698C21.0442 23.8973 18.5683 21.8452 15.8024 20.2538C14.2548 18.9233 13.6924 18.4532 15.1482 16.7401C17.4451 14.0383 21.1123 11.4131 23.6881 8.78326C23.8607 8.60835 24.8524 7.49174 24.8841 7.38086C25.0029 6.95921 24.5704 6.67811 24.1696 6.79523C19.6058 9.29081 15.4175 12.803 10.9297 15.3861C8.20031 16.9571 6.54968 16.2497 3.70622 15.3954C1.08928 14.6084 -2.24367 13.7385 2.0841 11.688C7.80112 8.98003 14.1866 6.4501 20.0732 4.0451C22.7154 2.96598 25.5003 1.73381 28.1901 0.820219C30.2969 0.104966 33.1087 -1.13033 32.9931 2.28508C32.9139 4.64635 32.2723 7.71038 31.908 10.1091C31.352 13.7666 30.7247 17.4412 30.0308 21.0737L30.0324 21.0722Z" fill="#FDFEFE"/>
</svg>
