<svg width="33" height="32" viewBox="0 0 33 32" fill="none" xmlns="http://www.w3.org/2000/svg">
<g clip-path="url(#clip0_193_301)">
<path d="M29.7521 6.41875C31.5988 8.85275 32.8123 12.0876 32.9774 15.1191C33.4705 24.2169 26.0409 31.9025 16.6737 31.999C13.5166 32.0315 10.8011 31.2016 8.02698 29.8184L1.37648 31.6282C0.632079 31.8107 0.191664 31.3004 0.409478 30.6018L2.25611 24.2123C0.129431 20.3579 -0.614966 16.0978 0.547108 11.8133C4.02615 -1.00762 21.6356 -4.27968 29.7521 6.41875ZM5.02665 8.94226C2.61155 12.6409 2.20704 16.951 3.91006 21.0332C4.25234 21.855 4.7849 22.5815 5.03144 23.4312C4.66523 25.1445 4.05487 26.8206 3.59531 28.5177L8.49851 27.1461C9.26924 27.0043 9.90832 27.6192 10.5474 27.8982C12.1882 28.6153 14.0588 29.1338 15.8671 29.214C23.4774 29.5522 29.7856 23.7473 30.0214 16.4233C30.1399 12.7374 28.9491 9.62224 26.3485 6.9395C20.221 0.622024 9.78385 1.65653 5.02665 8.94226Z" fill="#FCFEFD"/>
<path d="M21.3303 18.3387C21.8091 18.5479 24.2804 19.6951 24.4671 19.9462C24.8609 20.4763 24.6502 21.7409 24.2433 22.2558C22.4888 24.4771 19.2611 23.7681 16.9406 22.8626C13.1456 21.3817 10.1105 18.0562 9.03344 14.2285C8.4554 12.1735 8.15022 9.74644 10.2278 8.38182C10.8322 7.98429 12.1666 7.84829 12.625 8.47713C12.9433 8.91302 14.1018 11.1552 14.2741 11.6632C14.5781 12.5652 12.8871 13.2824 12.5974 13.9019C12.3078 14.5214 13.1228 16.1871 13.4986 16.7648C14.0874 17.668 15.1191 18.613 16.0885 19.1221C16.6557 19.4197 18.1098 20.0601 18.6915 19.7347C19.2156 19.4418 20.057 18.033 20.7403 18.0771C20.9127 18.0888 21.1556 18.2619 21.3292 18.3375L21.3303 18.3387Z" fill="#FCFEFD"/>
</g>
<defs>
<clipPath id="clip0_193_301">
<rect width="33" height="32" fill="white"/>
</clipPath>
</defs>
</svg>
