<svg width="120" height="109" viewBox="0 0 120 109" fill="none" xmlns="http://www.w3.org/2000/svg">
<path d="M74.6893 31.0692C73.3451 29.7727 71.918 30.0463 70.2125 30.0507H64.3664C64.0555 28.6546 63.0429 27.028 62.544 25.6259L62.5854 25.562C63.0059 24.9241 63.6365 24.3621 64.165 23.8105L67.3746 20.5052C69.0267 18.8236 69.9846 17.8839 69.1378 15.3712C68.8668 14.5683 62.6535 8.4559 61.555 7.50135C58.8903 5.18783 56.5897 7.52068 54.7599 9.34057L52.1603 11.886C51.6184 12.4124 51.0811 12.9922 50.4726 13.4368C49.6673 13.1484 46.5702 11.8741 46.2771 11.2616C46.061 10.8111 46.1646 10.0528 46.1661 9.55616L46.1705 5.96396C46.1705 3.61624 46.2564 1.40234 43.679 0.391293C42.4132 -0.105311 35.6151 -0.0294819 33.772 0.0835178C27.042 0.776384 31.0732 9.59482 29.4181 11.5931C29.1368 11.9321 26.0042 13.5379 25.5616 13.5706C25.0301 13.6108 24.1788 12.4198 23.8354 12.0793L20.6021 8.89155C18.9826 7.28279 17.3867 5.50304 14.9307 7.14302C13.7286 7.94592 12.0261 9.89516 10.935 10.988C9.40275 12.5239 6.41083 14.6679 6.47004 16.9978C6.5189 18.947 8.19178 20.1365 9.45161 21.3869L12.1386 24.0781C12.6671 24.6104 13.28 25.1457 13.6708 25.7909C13.3836 26.7291 12.0512 29.343 11.4087 30.0492C10.71 30.1206 10.0082 30.0552 9.30653 30.0492H5.24721C-0.282159 30.0805 0.0894314 32.165 0.0894314 37.1548C0.0894314 40.1895 -0.81955 45.4811 3.15834 46.2781C4.1369 46.4743 5.20873 46.348 6.20357 46.345H11.4087C11.8514 46.9591 13.3229 50.1186 13.2222 50.7535C13.1216 51.3869 10.5723 53.6766 10.0408 54.1955C5.90008 58.2367 4.81493 59.2552 8.97491 63.463L12.4998 66.9808C13.5109 67.9815 14.4495 69.33 15.9211 69.6393C19.6562 70.4199 22.4823 64.9141 25.4402 62.9084L25.489 62.9307C28.592 64.3194 29.8296 63.1879 29.7985 66.3786L29.7941 69.8668C29.7867 75.8022 31.4255 76.0029 36.5063 76H42.1704C46.1068 75.9405 46.3955 72.7126 46.3926 69.6021L46.3881 66.2939C46.3881 65.9266 46.3067 65.2546 46.4607 64.926C46.659 64.5037 49.8893 63.0169 50.4726 62.9084L50.5452 62.95C53.8761 64.8591 55.9058 70.6221 60.3322 69.446C61.638 69.0981 62.3885 68.1539 63.2975 67.2083L65.151 65.317C66.0392 64.422 68.6107 62.0802 69.1185 61.2104C70.7307 58.4464 68.1222 56.6294 66.4774 54.9449C65.2887 53.7286 63.8704 52.0455 62.544 51.0092C63.1494 49.6101 63.9326 47.7783 64.3664 46.342C66.2213 46.3227 71.5064 46.6082 73.0564 46.229C76.4051 45.4083 75.9048 42.1209 75.9062 39.5472C75.9077 37.1311 76.4999 32.8133 74.6893 31.0662V31.0692ZM38.0015 56.112C28.0427 56.112 19.9685 48.0028 19.9685 38.0009C19.9685 27.9989 28.0427 19.8897 38.0015 19.8897C47.9603 19.8897 56.0345 27.9989 56.0345 38.0009C56.0345 48.0028 47.9603 56.112 38.0015 56.112Z" fill="url(#paint0_linear_646_1626)"/>
<path d="M117.253 53.0968C116.18 52.5061 115.314 52.914 114.225 53.1977L110.493 54.1612C110.062 53.338 109.144 52.4871 108.592 51.6917L108.608 51.6449C108.77 51.177 109.08 50.7208 109.324 50.2895L110.822 47.6928C111.598 46.3681 112.052 45.6224 111.093 44.1881C110.785 43.7304 105.799 40.9276 104.939 40.5123C102.853 39.5035 101.771 41.3428 100.907 42.783L99.6712 44.8036C99.4128 45.2218 99.1663 45.6736 98.8514 46.0523C98.29 46.004 96.0993 45.7175 95.8097 45.3826C95.5973 45.1355 95.5364 44.6443 95.4547 44.3328L94.8591 42.0841C94.467 40.6147 94.1536 39.2154 92.3402 39.0063C91.449 38.904 87.1211 40.0708 85.9626 40.4465C81.7802 41.9891 85.8245 46.8433 85.0997 48.3668C84.9764 48.6256 83.2431 50.1462 82.9669 50.2398C82.6342 50.3524 81.8916 49.7471 81.6168 49.5906L79.0206 48.1285C77.7181 47.3887 76.4022 46.5377 75.1071 47.9691C74.4729 48.6695 73.7109 50.1711 73.1971 51.0337C72.4738 52.2473 70.9217 54.0823 71.3465 55.5312C71.7014 56.7433 72.9698 57.2127 73.9813 57.7873L76.1452 59.0301C76.5715 59.2757 77.0527 59.5097 77.4092 59.8503C77.3824 60.4849 76.9666 62.3403 76.674 62.8886C76.2388 63.048 75.7799 63.1226 75.3328 63.2351L72.7411 63.9019C69.2167 64.8347 69.8003 66.0775 70.6321 69.1991C71.1385 71.0984 71.4386 74.5607 74.112 74.4028C74.7699 74.3633 75.4323 74.1089 76.068 73.9423L79.3905 73.084C79.7766 73.3969 81.2425 75.131 81.2826 75.5462C81.3242 75.9585 80.0781 77.8125 79.8241 78.2248C77.8532 81.4356 77.3305 82.253 80.6871 84.2005L83.5239 85.822C84.3363 86.2811 85.1606 86.9712 86.1512 86.9215C88.6657 86.7958 89.5539 82.8831 91.1074 81.1403L91.1416 81.1461C93.3546 81.5044 93.9561 80.592 94.4685 82.5936L95.0477 84.7766C96.0324 88.4933 97.1122 88.3485 100.356 87.5093L103.972 86.5765C106.475 85.8907 106.122 83.8218 105.603 81.8757L105.049 79.8054C104.987 79.5758 104.824 79.1679 104.868 78.9383C104.924 78.6415 106.739 77.1794 107.093 77.0142L107.146 77.0288C109.591 77.6751 111.849 80.9473 114.479 79.4822C115.254 79.0495 115.577 78.3345 116 77.5932L116.869 76.1047C117.288 75.3985 118.538 73.508 118.718 72.8808C119.287 70.885 117.319 70.1773 115.988 69.3951C115.027 68.8292 113.84 68.009 112.82 67.5806C112.973 66.6053 113.169 65.3304 113.206 64.3595C114.387 64.0422 117.81 63.3492 118.736 62.8565C120.736 61.792 119.869 59.8152 119.441 58.2055C119.04 56.6922 118.698 53.8922 117.25 53.0968H117.253ZM97.9989 74.8151C91.6391 76.4557 85.1324 72.7112 83.4659 66.4504C81.7995 60.1895 85.6032 53.784 91.9629 52.1435C98.3227 50.503 104.829 54.2475 106.496 60.5083C108.162 66.7691 104.359 73.1746 97.9989 74.8151Z" fill="white"/>
<path d="M79.2383 86.202C78.5518 85.816 77.9974 86.083 77.3002 86.2676L74.9111 86.8961C74.6347 86.3591 74.0484 85.8038 73.6945 85.2836L73.7051 85.2531C73.8084 84.948 74.0074 84.6505 74.1638 84.3682L75.1222 82.6733C75.6173 81.8083 75.909 81.3216 75.2954 80.3849C75.0994 80.0859 71.9084 78.2567 71.3585 77.9851C70.0235 77.3261 69.3309 78.5267 68.778 79.468L67.9867 80.7876C67.8211 81.0607 67.6632 81.3552 67.4627 81.6038C67.1027 81.5733 65.7008 81.3857 65.5171 81.166C65.3804 81.0058 65.3424 80.6839 65.2892 80.481L64.908 79.0134C64.6574 78.0538 64.4569 77.1399 63.2965 77.0042C62.7269 76.937 59.9566 77.6998 59.2154 77.9439C56.5392 78.9508 59.1273 82.121 58.664 83.1157C58.5851 83.2851 57.4763 84.2782 57.2986 84.3392C57.086 84.4125 56.6106 84.0173 56.4344 83.9151L54.7728 82.9601C53.9389 82.4765 53.0975 81.9212 52.2682 82.8564C51.8627 83.314 51.3751 84.2935 51.0456 84.8579C50.5823 85.6497 49.589 86.8488 49.8624 87.7947C50.0902 88.5865 50.9013 88.8916 51.5483 89.2684L52.9335 90.0801C53.2069 90.2403 53.5137 90.3928 53.7415 90.6156C53.7248 91.0305 53.459 92.2403 53.2706 92.5988C52.9927 92.7026 52.6981 92.7514 52.4125 92.8261L50.7539 93.2625C48.4985 93.8712 48.8721 94.6828 49.4052 96.721C49.7287 97.9613 49.9216 100.221 51.6318 100.118C52.0525 100.093 52.4763 99.9263 52.8833 99.818L55.0097 99.2565C55.2558 99.461 56.1944 100.593 56.2202 100.865C56.2461 101.135 55.4487 102.344 55.2877 102.614C54.027 104.711 53.6929 105.245 55.8405 106.515L57.6555 107.574C58.175 107.875 58.702 108.325 59.3369 108.293C60.9469 108.21 61.5134 105.656 62.5082 104.518L62.531 104.523C63.9466 104.756 64.3324 104.161 64.6604 105.469L65.031 106.895C65.6614 109.321 66.3509 109.228 68.4272 108.68L70.7419 108.071C72.3442 107.623 72.1179 106.273 71.7853 105.002L71.4314 103.65C71.3919 103.501 71.2871 103.234 71.3145 103.084C71.3509 102.891 72.5113 101.935 72.7392 101.829L72.7741 101.838C74.3385 102.259 75.7829 104.396 77.4658 103.44C77.9624 103.157 78.169 102.691 78.4394 102.206L78.9953 101.234C79.2626 100.773 80.0645 99.5388 80.1784 99.1284C80.543 97.8255 79.2823 97.3633 78.4318 96.8522C77.8166 96.483 77.0572 95.9475 76.4041 95.6668C76.5013 95.0291 76.6274 94.1977 76.6517 93.5645C77.4081 93.357 79.5982 92.9055 80.1906 92.5836C81.471 91.8879 80.9166 90.5988 80.6417 89.5461C80.385 88.559 80.1663 86.7298 79.2398 86.2111L79.2383 86.202ZM66.9174 100.382C62.8485 101.453 58.6853 99.0079 57.6176 94.9208C56.5513 90.8337 58.986 86.652 63.055 85.5796C67.124 84.5071 71.2871 86.9541 72.3549 91.0412C73.4211 95.1283 70.9864 99.3099 66.9174 100.382Z" fill="url(#paint1_linear_646_1626)"/>
<defs>
<linearGradient id="paint0_linear_646_1626" x1="65.4485" y1="11.5218" x2="10.3175" y2="64.6535" gradientUnits="userSpaceOnUse">
<stop stop-color="#B4E5F3"/>
<stop offset="1" stop-color="#F8F8F6"/>
</linearGradient>
<linearGradient id="paint1_linear_646_1626" x1="73.3784" y1="79.1947" x2="56.5302" y2="106.845" gradientUnits="userSpaceOnUse">
<stop stop-color="#B4E5F3"/>
<stop offset="1" stop-color="#F8F8F6"/>
</linearGradient>
</defs>
</svg>
